# xmcd CD database file
#
# Track frame offsets:
#	187
#	17373
#	33211
#	56938
#	88953
#	104199
#	124304
#	138074
#
# Disc length: 1931 seconds
#
# Revision: 0
# Processed by: cddbd v1.5.2PL0 Copyright (c) Steve Scherf et al.
# Submitted via: CDex 1.70beta2
#
DISCID=6c078908
DTITLE=Smart Chart Music - Classic Thad Jones - Arr. by Mike Carubia
DYEAR=2003
DGENRE=Jazz
TTITLE0=Don't Get Sassy (F)
TTITLE1=Back Bone
TTITLE2=Greetings and Salutations
TTITLE3=Central Park North
TTITLE4=Don't Get Sassy (Bb)
TTITLE5=You Can Count On It
TTITLE6=Just Havin' a Good Time
TTITLE7=Mambo Loops
EXTD=YEAR: 2003
EXTT0=
EXTT1=
EXTT2=
EXTT3=
EXTT4=
EXTT5=
EXTT6=
EXTT7=
PLAYORDER=
